<svg id="Layer_3" enable-background="new 0 0 64 64" height="512" viewBox="0 0 64 64" width="512" xmlns="http://www.w3.org/2000/svg"><g><path d="m52 24h-40c-1.105 0-2 .895-2 2v35h44v-35c0-1.105-.895-2-2-2z" fill="#d5cec2"/><path d="m50 57h-36c-.552 0-1-.448-1-1v-28c0-.552.448-1 1-1h36c.552 0 1 .448 1 1v28c0 .552-.448 1-1 1z" fill="#a8b0bc"/><path d="m51 56c0 .552-.448 1-1 1h-36c-.552 0-1-.448-1-1v-9h38z" fill="#758190"/><path d="m48 4h3l2-2h5l4 4v54c0 1.105-.895 2-2 2h-6v-36c0-1.105-.895-2-2-2h-40c-1.105 0-2 .895-2 2v36h-6c-1.105 0-2-.895-2-2v-56c0-1.105.895-2 2-2h6v16h34c2.209 0 4-1.791 4-4z" fill="#243242"/><path d="m10 3h18v15h-18z" fill="#c1c8d1"/><path d="m44 18h-18c-2.209 0-4-1.791-4-4v-12h26v12c0 2.209-1.791 4-4 4z" fill="#8892a0"/><g><path d="m58.999 58.998h-2c-.553 0-1-.447-1-1v-1.999c0-.553.447-1 1-1h2c.553 0 1 .447 1 1v1.999c0 .553-.447 1-1 1z" fill="#d5cec2"/></g><g><path d="m7 58.998h-2c-.553 0-1-.447-1-1v-1.999c0-.553.447-1 1-1h2c.553 0 1 .447 1 1v1.999c0 .553-.448 1-1 1z" fill="#d5cec2"/></g><path d="m36 5h6v10h-6z" fill="#243242"/><g><path d="m25 4.999h6v1.999h-6z" fill="#c1c8d1"/></g><g><path d="m25 7.999h8v1.999h-8z" fill="#c1c8d1"/></g><g><path d="m16 29.999h32v1.999h-32z" fill="#e7e4dd"/></g><g><path d="m16 33.999h32v1.999h-32z" fill="#e7e4dd"/></g><g><path d="m16 37.999h32v1.999h-32z" fill="#e7e4dd"/></g><g><path d="m16 41.999h32v1.999h-32z" fill="#e7e4dd"/></g><g><path d="m5 4.999h2v3.999h-2z" fill="#d5cec2"/></g><path d="m36 13.21c2.78-1.418 4.688-4.301 4.688-7.636 0-.194-.016-.384-.029-.574h-4.659z" fill="#4d5d7a"/><g><path d="m62.707 5.291-4-4c-.187-.187-.442-.293-.707-.293h-5c-.266 0-.52.105-.708.293l-1.707 1.707h-1.585v-.999c0-.266-.105-.521-.293-.708s-.442-.292-.707-.292h-26c-.553 0-1 .447-1 .999v.001h-10.001v-.001c0-.552-.447-1-1-1h-6c-1.654 0-3 1.347-3 3v56.001c0 1.653 1.346 3 3 3h6c.553 0 1-.448 1-1v-.001h42.001v.001c0 .552.447 1 1 1h6c1.654 0 3-1.347 3-3v-54c0-.266-.105-.52-.293-.708zm-39.707-2.292h24v10.999c0 1.654-1.346 3-3 3h-18c-1.655 0-3-1.346-3-2.999zm-2 .999v10c0 1.13.391 2.162 1.025 3h-11.026v-13zm-10.001 56.001v-34.001c0-.551.449-1 1-1h40c.551 0 1 .449 1 1.001v34zm50.001 0c0 .551-.449 1-1 1h-5v-35.001c0-1.653-1.346-3-3-3h-40c-1.654 0-3 1.347-3 3v35.001h-5c-.551 0-1-.449-1-1v-56.001c0-.551.449-1 1-1h5v15c0 .553.448 1 1 1h16 17.999c2.757 0 5-2.242 5-4.999v-6-3.001h2c.265 0 .52-.104.707-.292l1.707-1.708h4.171l3.416 3.415z"/><path d="m56 56v1.999c0 .553.447 1 1 1h2c.553 0 1-.447 1-1v-1.999c0-.553-.447-1-1-1h-2c-.553 0-1 .447-1 1z"/><path d="m7 55h-2c-.553 0-1 .447-1 1v1.999c0 .553.447 1 1 1h2c.553 0 1-.447 1-1v-1.999c0-.553-.448-1-1-1z"/><path d="m36 15.998h6c.553 0 1-.447 1-1v-9.999c0-.553-.447-1-1-1h-6c-.553 0-1 .447-1 1v9.999c0 .553.447 1 1 1zm1-9.999h4v7.999h-4z"/><path d="m25 4.999h6v1.999h-6z"/><path d="m25 7.999h8v1.999h-8z"/><path d="m50 25.999h-36c-1.103 0-2 .896-2 2v28.001c0 1.103.897 2 2 2h36c1.103 0 2-.897 2-2v-28.001c0-1.103-.897-2-2-2zm0 2 .001 18h-36.001v-18zm-36 28.001v-8.002h36.001v8.001z"/><path d="m16 29.999h32v1.999h-32z"/><path d="m16 33.999h32v1.999h-32z"/><path d="m16 37.999h32v1.999h-32z"/><path d="m16 41.999h32v1.999h-32z"/><path d="m5 4.999h2v3.999h-2z"/></g></g></svg>